<?xml version="1.0" encoding="UTF-8"?>
<svg viewBox="0 0 48 48" xmlns="http://www.w3.org/2000/svg" xmlns:xlink="http://www.w3.org/1999/xlink">
 <defs>
  <linearGradient id="a">
   <stop stop-color="#fff" stop-opacity=".8" offset="0"/>
   <stop stop-color="#fff" stop-opacity="0" offset="1"/>
  </linearGradient>
  <linearGradient id="k">
   <stop stop-color="#c17d11" offset="0"/>
   <stop stop-color="#8f5902" offset="1"/>
  </linearGradient>
  <radialGradient id="m" cx="27.633" cy="45.552" r="14.341" gradientTransform="matrix(1 0 0 .25203 0 34.071)" gradientUnits="userSpaceOnUse">
   <stop stop-color="#2e3436" offset="0"/>
   <stop stop-color="#2e3436" stop-opacity="0" offset="1"/>
  </radialGradient>
  <radialGradient id="n" cx="211.23" cy="-24.954" r="61.56" gradientTransform="matrix(1.3702 -1.3976 1.5215 1.342 -61.979 357.02)" gradientUnits="userSpaceOnUse" xlink:href="#k"/>
  <linearGradient id="o" x2="0" y1="-70.3" y2="49.68" gradientUnits="userSpaceOnUse" xlink:href="#a"/>
  <linearGradient id="l" x2="0" y1="16.873" y2="31.851" gradientUnits="userSpaceOnUse" xlink:href="#k"/>
  <linearGradient id="p" x2="0" y1="17.875" y2="30.531" gradientUnits="userSpaceOnUse" xlink:href="#a"/>
  <linearGradient id="q" x2="0" y1="17.844" y2="30.594" gradientUnits="userSpaceOnUse" xlink:href="#a"/>
  <linearGradient id="r" x2="0" y1="20.927" y2="31.675" gradientUnits="userSpaceOnUse">
   <stop stop-color="#babdb6" offset="0"/>
   <stop stop-color="#eeeeec" offset="1"/>
  </linearGradient>
  <radialGradient id="s" cx="24.18" cy="31.851" r="1.517" gradientTransform="matrix(1 0 0 .52941 0 14.989)" gradientUnits="userSpaceOnUse">
   <stop stop-color="#8f5902" offset="0"/>
   <stop stop-color="#683f00" offset="1"/>
  </radialGradient>
 </defs>
 <g transform="translate(.0003865 -1.4685)">
  <path transform="translate(-3.6327 -2.3999)" d="m41.974 45.552a14.341 3.6144 0 1 1 -28.682 0 14.341 3.6144 0 1 1 28.682 0z" fill="url(#m)" opacity=".6"/>
  <path transform="matrix(.29899 0 0 .31523 -31.003 27.251)" d="m183.56-73.219c-35.604 0-64.656 28.156-64.656 62.906s29.052 62.906 64.656 62.906 64.625-28.158 64.625-62.906-29.021-62.906-64.625-62.906z" fill="#683f00"/>
  <path transform="matrix(.29899 0 0 .31523 -31.003 27.251)" d="m245.11-10.315a61.565 59.844 0 1 1 -123.13 0 61.565 59.844 0 1 1 123.13 0z" fill="url(#n)"/>
  <path transform="matrix(.29899 0 0 .31523 -31.003 27.251)" d="m183.56-68.719c-33.22 0-60.156 26.181-60.156 58.406s26.936 58.406 60.156 58.406 60.125-26.18 60.125-58.406-26.905-58.406-60.125-58.406z" fill="none" opacity=".8" stroke="url(#o)" stroke-linecap="round" stroke-width="3.257"/>
  <path d="m20 37s0.79858 1.3991 1.2449 1.6005c0.44634 0.20142 0.92301 0.1953 1.3861 0s1.369-1.6005 1.369-1.6005 0.81911 1.3369 1.4 1.6005c0.4155 0.18858 1.1181 0.21426 1.521 0 0.51126-0.27192 1.079-1.6005 1.079-1.6005" fill="none" stroke="#683f00" stroke-linecap="round" stroke-linejoin="round" stroke-width="1.099"/>
  <g transform="translate(0,-6)" stroke-linecap="round">
   <path d="m11.07 17.373c-4.1444 0-7.5027 3.1694-7.5027 7.0822 0 3.3514 2.4618 6.1579 5.7742 6.8954 0.82779-4.339 4.504-7.7197 9.0911-8.2875-0.68534-3.2475-3.7224-5.6901-7.3625-5.6901z" fill="url(#l)" stroke="#683f00" stroke-linejoin="round"/>
   <path d="m11.062 18.375c-3.628 0-6.5 2.758-6.5 6.0938 1e-7 2.5663 1.7463 4.6778 4.1875 5.5625 1.1802-3.8076 4.3404-6.6834 8.3438-7.625-0.90608-2.3039-3.2009-4.0312-6.0312-4.0312z" fill="none" opacity=".8" stroke="url(#p)"/>
  </g>
  <g transform="translate(0 -5.9997)" stroke-linecap="round">
   <path d="m36.93 17.373c4.1444 0 7.5027 3.1694 7.5027 7.0822 0 3.3514-2.4618 6.1579-5.7742 6.8954-0.82779-4.339-4.504-7.7197-9.0911-8.2875 0.68533-3.2475 3.7224-5.6901 7.3625-5.6901z" fill="url(#l)" stroke="#683f00" stroke-linejoin="round"/>
   <path d="m36.938 18.344c-2.875 0-5.1975 1.739-6.0938 4.0938 4.0396 0.92529 7.2099 3.8145 8.375 7.6562 2.4807-0.88248 4.25-3.0223 4.25-5.625 0-3.3653-2.8768-6.125-6.5312-6.125z" fill="none" opacity=".8" stroke="url(#q)"/>
  </g>
  <g fill="url(#r)">
   <path d="m17.924 20.927c-2.0477 0-3.7269 2.4011-3.7269 5.3741 0 2.9731 1.6792 5.3741 3.7269 5.3741s3.6956-2.4011 3.6956-5.3741c0-2.9731-1.6479-5.3741-3.6956-5.3741z"/>
   <path d="m30.013 20.927c-2.0477 0-3.6956 2.4011-3.6956 5.3741 0 2.9731 1.6479 5.3741 3.6956 5.3741s3.6956-2.4011 3.6956-5.3741c0-2.9731-1.6479-5.3741-3.6956-5.3741z"/>
  </g>
  <path d="m17.924 20.927c-2.0477 0-3.7269 2.4011-3.7269 5.3741 0 2.9731 1.6792 5.3741 3.7269 5.3741s3.6956-2.4011 3.6956-5.3741c0-2.9731-1.6479-5.3741-3.6956-5.3741z" fill="none" stroke="#8f5902" stroke-linecap="round"/>
  <path d="m30.013 20.927c-2.0477 0-3.6956 2.4011-3.6956 5.3741 0 2.9731 1.6479 5.3741 3.6956 5.3741s3.6956-2.4011 3.6956-5.3741c0-2.9731-1.6479-5.3741-3.6956-5.3741z" fill="none" stroke="#8f5902" stroke-linecap="round"/>
 </g>
 <path transform="matrix(2.0129 0 0 2.9132 -24.592 -61.246)" d="m25.695 31.851a1.5167 0.80297 0 1 1 -3.0335 0 1.5167 0.80297 0 1 1 3.0335 0z" fill="url(#s)"/>
</svg>
